<svg xmlns="http://www.w3.org/2000/svg" viewBox="0 0 512 512">
  <rect width="512" height="512" rx="96" fill="#0a0704"/>
  <!-- Marco de QR estilizado -->
  <g fill="#C4692B">
    <!-- Esquinas del QR -->
    <rect x="80" y="80" width="120" height="120" rx="14"/>
    <rect x="312" y="80" width="120" height="120" rx="14"/>
    <rect x="80" y="312" width="120" height="120" rx="14"/>
  </g>
  <g fill="#0a0704">
    <rect x="108" y="108" width="64" height="64" rx="6"/>
    <rect x="340" y="108" width="64" height="64" rx="6"/>
    <rect x="108" y="340" width="64" height="64" rx="6"/>
  </g>
  <g fill="#C4692B">
    <rect x="124" y="124" width="32" height="32" rx="3"/>
    <rect x="356" y="124" width="32" height="32" rx="3"/>
    <rect x="124" y="356" width="32" height="32" rx="3"/>
  </g>
  <!-- Píxeles centrales del QR -->
  <g fill="#E8A020">
    <rect x="232" y="80" width="28" height="28"/>
    <rect x="272" y="80" width="28" height="28"/>
    <rect x="232" y="120" width="28" height="28"/>
    <rect x="232" y="232" width="28" height="28"/>
    <rect x="272" y="232" width="28" height="28"/>
    <rect x="312" y="232" width="28" height="28"/>
    <rect x="232" y="272" width="28" height="28"/>
    <rect x="272" y="312" width="28" height="28"/>
    <rect x="312" y="272" width="28" height="28"/>
    <rect x="352" y="232" width="28" height="28"/>
    <rect x="232" y="312" width="28" height="28"/>
    <rect x="272" y="352" width="28" height="28"/>
  </g>
  <!-- Letra E -->
  <g fill="#EAE0D0" font-family="Arial Black, sans-serif" font-weight="900" font-size="64" text-anchor="middle">
    <text x="256" y="478">EntradasJujuy</text>
  </g>
</svg>
